<svg width="17" height="18" viewBox="0 0 17 18" fill="none" xmlns="http://www.w3.org/2000/svg">
<path d="M10.5 1.5L10.5 5.5L14.5 5.5" stroke="#1B2E10" stroke-width="1.2" stroke-miterlimit="10"/>
<path d="M14.5 7.5L14.5 5.5L10.5 1.5L2.5 1.5L2.5 7.5" stroke="#1B2E10" stroke-width="1.2" stroke-miterlimit="10" stroke-linecap="square"/>
<path d="M2.5 14.5L2.5 16.5L14.5 16.5L14.5 14.5" stroke="#1B2E10" stroke-width="1.2" stroke-miterlimit="10" stroke-linecap="square"/>
<path d="M8.4 12.5L8.25 11.95H7.3L7.2 12.5H6.35L7.3 9.64999L8.35 9.64999L9.3 12.5L8.4 12.5ZM8.1 11.35L8 10.85C7.95 10.75 7.95 10.6 7.9 10.45C7.85 10.3 7.85 10.15 7.8 10.1C7.8 10.15 7.75 10.3 7.75 10.45C7.75 10.6 7.65 10.9 7.5 11.35H8.1Z" fill="#1B2E10"/>
<path d="M9.55 12.5L9.55 9.64999H10.35L10.35 12.5H9.55Z" fill="#1B2E10"/>
<path d="M16 7.5L1 7.5L1 14.5L16 14.5L16 7.5Z" stroke="#1B2E10" stroke-width="1.2" stroke-miterlimit="10" stroke-linecap="square"/>
</svg>