<svg width="16" height="16" viewBox="0 0 16 16" fill="none" xmlns="http://www.w3.org/2000/svg">
<path d="M8.77145 5.21743V4.446H7.22859V5.21743H8.77145ZM8.00002 8.43172H7.22859V9.20315H8.00002V8.43172ZM11.2143 9.20315H11.9857V7.66029H11.2143V9.20315ZM8.00002 2.646V3.41743V2.646ZM7.22859 5.21743V8.43172H8.77145V5.21743H7.22859ZM8.00002 9.20315H11.2143V7.66029H8.00002V9.20315ZM2.83145 15.966L4.84487 13.2814L3.61059 12.3557L1.59716 15.0403L2.83145 15.966ZM13.0143 8.43172C13.0143 11.201 10.7693 13.446 8.00002 13.446V14.9889C11.6214 14.9889 14.5572 12.0531 14.5572 8.43172H13.0143ZM8.00002 13.446C5.2307 13.446 2.98573 11.201 2.98573 8.43172H1.44287C1.44287 12.0531 4.37861 14.9889 8.00002 14.9889V13.446ZM2.98573 8.43172C2.98573 5.66241 5.2307 3.41743 8.00002 3.41743V1.87458C4.37861 1.87458 1.44287 4.81031 1.44287 8.43172H2.98573ZM8.00002 3.41743C10.7693 3.41743 13.0143 5.66241 13.0143 8.43172H14.5572C14.5572 4.81031 11.6214 1.87458 8.00002 1.87458V3.41743ZM1.47407 5.12006L4.68836 1.90577L3.59739 0.814808L0.383106 4.02909L1.47407 5.12006ZM11.1552 13.2814L13.1686 15.966L14.4029 15.0403L12.3894 12.3557L11.1552 13.2814ZM15.6169 4.02909L12.4026 0.814808L11.3117 1.90577L14.526 5.12006L15.6169 4.02909Z" fill="#1C4A2A"/>
</svg>
