<svg width="15" height="15" viewBox="0 0 15 15" fill="none" xmlns="http://www.w3.org/2000/svg">
<path d="M14.4834 4.15883L11.3412 1.01726C11.2367 0.91277 11.1127 0.829881 10.9762 0.773328C10.8397 0.716775 10.6934 0.687668 10.5456 0.687668C10.3978 0.687668 10.2515 0.716775 10.115 0.773328C9.97851 0.829881 9.85447 0.91277 9.75001 1.01726L1.07977 9.6875C0.974851 9.79159 0.891667 9.91549 0.835055 10.052C0.778443 10.1885 0.749534 10.3349 0.750006 10.4827L0.750006 13.625C0.750006 13.9234 0.868532 14.2095 1.07951 14.4205C1.29049 14.6315 1.57664 14.75 1.87501 14.75L13.6875 14.75C13.8367 14.75 13.9798 14.6907 14.0853 14.5852C14.1907 14.4798 14.25 14.3367 14.25 14.1875C14.25 14.0383 14.1907 13.8952 14.0853 13.7898C13.9798 13.6843 13.8367 13.625 13.6875 13.625L6.60844 13.625L14.4834 5.75C14.5879 5.64553 14.6708 5.5215 14.7274 5.38499C14.7839 5.24848 14.813 5.10217 14.813 4.95441C14.813 4.80665 14.7839 4.66034 14.7274 4.52383C14.6708 4.38733 14.5879 4.2633 14.4834 4.15883ZM8.06251 4.29523L9.23602 5.46875L3.28126 11.4235L2.10774 10.25L8.06251 4.29523ZM1.87501 13.625L1.87501 11.6077L3.89227 13.625H1.87501ZM5.25001 13.3923L4.07719 12.2187L10.0313 6.26398L11.2048 7.4375L5.25001 13.3923ZM12 6.64226L8.85844 3.5L10.5459 1.8125L13.6875 4.95476L12 6.64226Z" fill="#565E6C"/>
</svg>