<svg width="18" height="19" viewBox="0 0 18 19" fill="none" xmlns="http://www.w3.org/2000/svg">
<path d="M9 3.00316L9 12.0032" stroke="#565D6D" stroke-width="1.54286" stroke-miterlimit="10"/>
<path d="M6.42859 5.57459L9.00002 3.00316L11.5714 5.57459" stroke="#565D6D" stroke-width="1.54286" stroke-miterlimit="10" stroke-linecap="square"/>
<path d="M12.2143 8.14602H14.1428C14.4838 8.14602 14.8109 8.28148 15.052 8.5226C15.2931 8.76371 15.4286 9.09074 15.4286 9.43173L15.4286 14.5746C15.4286 14.9156 15.2931 15.2426 15.052 15.4837C14.8109 15.7248 14.4838 15.8603 14.1428 15.8603L3.85713 15.8603C3.51613 15.8603 3.18911 15.7248 2.94799 15.4837C2.70687 15.2426 2.57141 14.9156 2.57141 14.5746L2.57141 9.43173C2.57141 9.09074 2.70687 8.76371 2.94799 8.5226C3.18911 8.28148 3.51613 8.14602 3.85713 8.14602H5.7857" stroke="#565D6D" stroke-width="1.54286" stroke-miterlimit="10" stroke-linecap="square"/>
</svg>
